<?xml version="1.0" standalone="no"?>
<!DOCTYPE svg PUBLIC "-//W3C//DTD SVG 20010904//EN"
 "http://www.w3.org/TR/2001/REC-SVG-20010904/DTD/svg10.dtd">
<svg version="1.0" xmlns="http://www.w3.org/2000/svg"
 width="840.000000pt" height="840.000000pt" viewBox="0 0 840.000000 840.000000"
 preserveAspectRatio="xMidYMid meet">
<metadata>
Created by potrace 1.16, written by Peter Selinger 2001-2019
</metadata>
<g transform="translate(0.000000,840.000000) scale(0.100000,-0.100000)"
fill="#000000" stroke="none">
<path d="M6185 5320 c-73 -24 -161 -76 -186 -110 -11 -14 -28 -63 -40 -110
-27 -105 -22 -239 10 -342 27 -84 130 -240 186 -280 74 -54 99 -60 219 -53 99
7 116 11 172 42 82 45 147 103 189 169 36 56 53 64 79 39 8 -8 17 -15 21 -15
7 0 44 80 45 95 0 6 -36 34 -80 63 -99 66 -144 73 -171 27 -24 -41 -32 -95
-13 -95 20 0 18 -13 -15 -79 -38 -75 -86 -116 -151 -130 -69 -15 -88 -14 -138
9 -92 42 -158 104 -203 194 -50 100 -57 93 191 166 197 58 345 114 344 129 -1
6 -2 31 -2 56 -2 42 -8 51 -78 124 -87 91 -125 110 -244 117 -57 3 -89 -1
-135 -16z m231 -140 c49 -22 63 -34 73 -60 6 -18 11 -34 11 -36 0 -1 -24 -5
-52 -9 -29 -3 -123 -24 -210 -46 -168 -42 -198 -46 -198 -26 0 43 25 90 68
127 108 96 182 108 308 50z"/>
<path d="M5345 5022 c-69 -21 -144 -62 -184 -102 -67 -68 -87 -312 -37 -466
38 -118 138 -254 221 -300 57 -32 65 -34 162 -34 101 0 103 0 182 43 93 49
147 95 186 157 29 45 52 70 66 70 4 0 15 -7 23 -16 9 -8 21 -12 27 -8 13 7 39
67 39 87 0 20 -148 114 -192 122 -37 7 -38 6 -58 -36 -23 -52 -25 -86 -5 -91
20 -4 -33 -112 -79 -159 -35 -35 -101 -59 -164 -59 -53 1 -133 47 -210 123
-43 42 -98 155 -85 175 11 18 40 29 233 87 80 23 186 58 235 77 l90 35 3 51 3
51 -81 85 c-92 96 -130 114 -245 122 -49 3 -88 -1 -130 -14z m225 -146 c49
-23 67 -38 73 -59 5 -16 7 -31 4 -33 -3 -3 -34 -9 -69 -14 -35 -4 -125 -24
-201 -44 -76 -20 -149 -36 -163 -36 -22 0 -24 3 -18 28 13 52 23 71 54 100 76
73 155 107 225 95 17 -3 59 -19 95 -37z"/>
<path d="M4520 4667 c-64 -39 -112 -57 -151 -57 -21 0 -27 4 -23 15 5 12 -3
14 -50 11 -59 -4 -141 -38 -150 -62 -3 -8 4 -39 15 -69 18 -50 23 -55 47 -53
31 4 20 27 167 -377 58 -159 115 -310 127 -335 32 -70 98 -251 98 -271 0 -10
-4 -21 -10 -24 -5 -3 -10 -15 -10 -25 0 -10 -6 -21 -12 -23 -10 -4 -10 -8 1
-15 7 -5 11 -14 7 -20 -7 -11 63 -62 85 -62 9 0 24 9 33 19 10 11 41 25 69 32
56 13 107 35 107 47 0 14 -40 72 -50 72 -5 0 -10 6 -10 14 0 8 -9 16 -21 18
-16 2 -27 19 -45 67 -22 57 -89 206 -115 254 -13 24 24 37 104 37 66 0 71 2
163 72 28 21 55 38 61 38 13 0 46 37 49 54 1 8 11 27 22 43 12 15 32 75 46
132 l25 104 -20 96 c-24 118 -51 160 -139 219 -86 56 -144 74 -265 79 -99 4
-100 4 -155 -30z m227 -149 c82 -36 139 -107 175 -218 25 -80 12 -123 -70
-217 -36 -41 -77 -80 -91 -87 -28 -15 -94 -9 -168 14 l-42 13 -52 161 c-29 89
-52 169 -51 178 0 10 11 32 24 50 13 18 28 41 33 51 6 10 34 27 64 38 30 10
56 21 59 24 10 10 91 5 119 -7z m-351 -329 c153 -440 169 -490 146 -463 -10
10 -56 131 -71 184 -5 19 -24 69 -41 110 -17 41 -47 127 -66 190 -18 63 -38
123 -44 132 -5 10 -10 24 -10 31 0 7 -9 30 -20 52 -11 22 -20 46 -20 54 0 49
41 -45 126 -290z"/>
<path d="M2474 4391 c-95 -26 -144 -47 -144 -64 0 -20 31 -106 39 -112 5 -2
25 5 47 15 21 11 46 20 55 20 21 0 49 -70 88 -220 16 -63 56 -196 90 -295 34
-99 61 -193 61 -208 0 -15 6 -38 14 -50 8 -12 17 -59 20 -104 l6 -83 -35 -14
c-38 -16 -43 -27 -20 -46 8 -7 14 -18 13 -24 -5 -26 14 -56 35 -56 12 0 72 13
132 30 61 16 120 30 133 30 19 0 22 5 22 40 0 28 -6 45 -20 57 -11 10 -20 23
-20 30 0 15 -46 18 -55 3 -13 -21 -23 -8 -29 42 -4 29 -19 82 -33 118 -40 100
-61 192 -51 220 20 54 69 117 110 140 31 17 63 25 118 28 l75 4 42 -42 c48
-48 58 -74 98 -278 15 -74 33 -156 41 -184 l15 -50 92 7 c113 9 147 24 147 65
0 17 -8 38 -18 48 -10 10 -16 24 -14 30 2 7 -4 12 -14 12 -16 0 -16 1 2 14 27
20 14 27 -30 15 -21 -6 -40 -9 -42 -6 -2 2 -13 50 -25 107 -30 149 -92 291
-153 354 -27 28 -67 63 -90 78 -36 25 -50 28 -122 28 -70 0 -89 -4 -142 -30
-38 -20 -81 -53 -117 -92 -31 -33 -58 -58 -61 -55 -3 2 -12 57 -20 121 -13 97
-24 136 -68 243 -60 147 -56 144 -172 114z"/>
<path d="M3769 4381 c-83 -17 -190 -105 -235 -193 -25 -50 -58 -187 -56 -238
0 -14 4 -71 8 -126 l7 -102 71 -74 c98 -103 178 -141 291 -140 81 0 155 21
251 70 78 40 97 74 144 258 27 108 29 125 19 184 -6 36 -18 83 -27 105 -20 48
-72 124 -72 105 0 -9 -9 -5 -25 10 -29 27 -32 42 -7 33 16 -6 16 -5 -1 14 -47
54 -277 112 -368 94z m187 -176 c27 -14 64 -30 81 -36 26 -8 35 -18 44 -52 6
-22 25 -70 42 -106 29 -62 30 -67 19 -120 -33 -155 -122 -251 -234 -251 -96 0
-155 19 -209 68 -50 45 -59 64 -80 177 -8 46 -7 66 5 103 9 26 21 67 27 91 13
55 37 76 130 118 89 39 111 40 175 8z"/>
<path d="M2274 4086 c-17 -6 -42 -20 -56 -32 -23 -18 -26 -26 -21 -64 l6 -43
-63 6 c-38 3 -114 -2 -194 -13 -111 -16 -133 -22 -146 -40 -8 -12 -27 -36 -41
-53 -36 -44 -67 -106 -79 -161 -9 -40 -7 -54 14 -103 13 -31 34 -68 47 -82 61
-63 222 -97 356 -75 125 21 166 18 233 -16 71 -36 90 -61 90 -118 0 -111 -35
-165 -130 -201 -71 -27 -93 -26 -224 5 -120 30 -165 59 -208 135 -12 22 -27
39 -35 39 -28 0 -103 -45 -103 -61 0 -43 43 -199 68 -244 24 -44 31 -50 63
-53 57 -5 89 12 89 47 l0 30 40 -14 c57 -20 185 -39 260 -39 80 0 175 33 220
77 41 40 98 129 116 180 27 76 9 201 -35 249 -12 12 -21 27 -21 33 0 7 -34 27
-76 44 -95 40 -207 51 -371 35 -39 -4 -87 -4 -107 0 -67 13 -136 94 -136 159
0 41 36 75 103 96 34 11 55 20 47 21 -13 0 -13 1 0 10 20 13 43 13 35 0 -4 -6
23 -10 73 -10 97 0 180 -15 203 -36 14 -13 29 -15 64 -10 58 9 74 36 57 94
-15 49 -88 209 -99 215 -4 2 -22 -1 -39 -7z"/>
</g>
</svg>
